HIERARCHY
ROOT Pelvis
{
	OFFSET 0.000000 0.000000 0.000000
	CHANNELS 6 Xposition Yposition Zposition Zrotation Yrotation Xrotation 
	JOINT Left_hip
	{
		OFFSET 0.067986 -0.089946 -0.007639
		CHANNELS 3 Zrotation Yrotation Xrotation
		JOINT Left_knee
		{
			OFFSET 0.036308 -0.388288 -0.004016
			CHANNELS 3 Zrotation Yrotation Xrotation
			JOINT Left_ankle
			{
				OFFSET -0.012264 -0.413250 -0.042878
				CHANNELS 3 Zrotation Yrotation Xrotation
				JOINT Left_foot
				{
					OFFSET 0.024043 -0.058563 0.118570
					CHANNELS 3 Zrotation Yrotation Xrotation
					End Site
					{
						OFFSET 0.000000 0.000000 0.000000
					}
				}
			}
		}
	}
	JOINT Right_hip
	{
		OFFSET -0.065648 -0.089374 -0.003858
		CHANNELS 3 Zrotation Yrotation Xrotation
		JOINT Right_knee
		{
			OFFSET -0.042132 -0.395021 -0.006361
			CHANNELS 3 Zrotation Yrotation Xrotation
			JOINT Right_ankle
			{
				OFFSET 0.014805 -0.413264 -0.041054
				CHANNELS 3 Zrotation Yrotation Xrotation
				JOINT Right_foot
				{
					OFFSET -0.021758 -0.049013 0.121832
					CHANNELS 3 Zrotation Yrotation Xrotation
					End Site
					{
						OFFSET 0.000000 0.000000 0.000000
					}
				}
			}
		}
	}
	JOINT Spine1
	{
		OFFSET -0.002755 0.104406 -0.022277
		CHANNELS 3 Zrotation Yrotation Xrotation
		JOINT Spine2
		{
			OFFSET 0.004136 0.129393 -0.002186
			CHANNELS 3 Zrotation Yrotation Xrotation
			JOINT Spine3
			{
				OFFSET 0.001906 0.049304 0.025578
				CHANNELS 3 Zrotation Yrotation Xrotation
				JOINT Neck
				{
					OFFSET -0.004620 0.210958 -0.044063
					CHANNELS 3 Zrotation Yrotation Xrotation
					JOINT Head
					{
						OFFSET 0.003833 0.067393 0.052435
						CHANNELS 3 Zrotation Yrotation Xrotation
						End Site
						{
							OFFSET 0.000000 0.000000 0.000000
						}
					}
				}
				JOINT Left_collar
				{
					OFFSET 0.070771 0.116689 -0.037192
					CHANNELS 3 Zrotation Yrotation Xrotation
					JOINT Left_shoulder
					{
						OFFSET 0.080652 0.031596 -0.005617
						CHANNELS 3 Zrotation Yrotation Xrotation
						JOINT Left_elbow
						{
							OFFSET 0.262654 -0.015020 -0.027939
							CHANNELS 3 Zrotation Yrotation Xrotation
							JOINT Left_wrist
							{
								OFFSET 0.250438 0.010062 -0.000990
								CHANNELS 3 Zrotation Yrotation Xrotation
								JOINT Left_palm
								{
									OFFSET 0.081198 -0.010037 -0.013706
									CHANNELS 3 Zrotation Yrotation Xrotation
									End Site
									{
										OFFSET 0.000000 0.000000 0.000000
									}
								}
							}
						}
					}
				}
				JOINT Right_collar
				{
					OFFSET -0.072972 0.115556 -0.040762
					CHANNELS 3 Zrotation Yrotation Xrotation
					JOINT Right_shoulder
					{
						OFFSET -0.082917 0.031841 -0.006673
						CHANNELS 3 Zrotation Yrotation Xrotation
						JOINT Right_elbow
						{
							OFFSET -0.252882 -0.013790 -0.020410
							CHANNELS 3 Zrotation Yrotation Xrotation
							JOINT Right_wrist
							{
								OFFSET -0.255570 0.009163 -0.005138
								CHANNELS 3 Zrotation Yrotation Xrotation
								JOINT Right_palm
								{
									OFFSET -0.080804 -0.007282 -0.010415
									CHANNELS 3 Zrotation Yrotation Xrotation
									End Site
									{
										OFFSET 0.000000 0.000000 0.000000
									}
								}
							}
						}
					}
				}
			}
		}
	}
}
MOTION
Frames: 15
Frame Time: 0.100000
0.134657 0.427172 -0.387078 173.152530 24.354383 -70.451627 3.061380 -1.659736 -25.421859 -4.167282 -6.409109 11.196450 -13.552702 2.697692 31.064059 -5.265473 13.659534 -13.186042 -1.384931 -1.327890 -28.227912 2.361017 -2.447756 13.523500 15.041638 -6.853855 25.723199 -3.347733 1.656331 -2.530214 3.519923 -2.589974 34.944681 -0.459818 -3.851742 -1.093861 3.227915 -1.395287 1.800399 -3.638019 3.434846 30.452115 4.510309 13.242370 -2.995653 13.249505 -9.535625 -16.651756 9.996111 -21.896541 -23.140667 143.860180 -37.827380 -118.821417 27.807913 -13.219435 1.185188 -4.247503 -3.098016 -3.125319 -20.857816 6.977607 -15.986557 -6.045812 15.783812 -17.585292 -150.240871 38.322710 -125.409860 -42.254458 15.641143 5.283865 14.488855 8.718554 1.062172 
0.134373 0.426663 -0.386080 172.939848 24.685347 -70.580975 2.232576 -2.311452 -25.963449 -4.406988 -5.739152 11.362135 -12.972089 2.620191 31.411414 -5.991259 13.433744 -13.144122 -1.032499 -1.156056 -28.721243 2.191343 -3.221821 14.588381 14.526581 -7.788725 26.659028 -3.416853 2.209605 -2.524802 3.480455 -2.476733 35.112785 -0.364592 -3.753663 -1.076996 3.219089 -1.404925 1.870696 -3.745700 3.047915 30.846696 4.589655 13.479005 -2.712890 12.910784 -9.363469 -16.420093 9.934796 -21.331932 -23.084681 144.033682 -37.695362 -118.849900 26.696255 -13.118015 1.408951 -4.233228 -3.233716 -3.412673 -20.573195 6.658930 -15.826478 -6.468854 14.659011 -17.640164 -150.178554 38.044284 -125.122537 -40.577846 15.572559 5.695272 14.089538 8.627732 1.373387 
0.134762 0.426569 -0.386664 172.920853 24.809409 -70.620616 1.813322 -2.480222 -26.532077 -4.404031 -4.817464 11.743148 -12.497814 2.650021 31.394213 -6.226900 13.525531 -13.243722 -0.681725 -1.123901 -28.700397 1.993251 -3.827249 15.371425 13.719296 -8.344089 26.308324 -3.243998 2.424521 -2.551981 3.555028 -2.333208 35.313921 -0.396506 -3.636745 -1.111990 3.175270 -1.285773 1.933319 -3.819893 2.949912 31.024503 4.599266 13.318311 -2.251559 13.095365 -9.624495 -16.391834 9.705895 -21.611541 -23.147333 144.043010 -37.905512 -118.655128 26.250036 -12.976695 1.556459 -4.003890 -3.217429 -3.464130 -20.728341 7.027878 -15.769147 -6.112869 14.881159 -17.652460 -150.005177 38.177546 -124.706203 -40.372654 15.493275 5.862374 13.828990 8.572831 1.380795 
0.134986 0.426569 -0.386981 172.879927 24.878210 -70.681341 1.425550 -1.965911 -26.604389 -4.443585 -3.314806 11.895590 -12.123215 2.567381 31.326736 -6.612097 13.751788 -13.495771 -0.303530 -1.500139 -28.549163 2.012548 -4.658481 16.337338 13.481140 -8.311334 26.292297 -3.094362 2.702717 -2.837450 3.664459 -2.310353 35.329145 -0.471099 -3.536606 -1.141658 3.125635 -1.228125 1.916346 -3.796178 2.971770 31.386117 4.495516 13.356568 -1.699723 13.256250 -9.852502 -16.465134 9.439840 -22.169067 -23.509885 143.874011 -37.963673 -118.451967 25.621013 -12.767627 1.434457 -3.653963 -3.200321 -3.251455 -20.895426 7.325971 -15.730638 -5.732322 15.532211 -17.747853 -149.997253 38.544534 -124.712144 -40.476792 15.405476 5.669672 13.843659 8.568890 1.565894 
0.134626 0.426652 -0.386802 172.820181 25.032282 -70.785118 1.171712 -2.569024 -26.637935 -4.596569 -3.594142 12.726807 -12.007701 2.514506 31.244159 -6.779026 13.645614 -13.464328 -0.189510 -1.263481 -28.550472 2.014043 -4.815162 16.940389 13.459406 -8.353113 26.074790 -3.114165 2.820645 -2.715724 3.608154 -2.221906 35.356871 -0.386512 -3.536591 -1.009337 3.116286 -1.194716 1.824341 -3.722213 3.028406 31.249148 4.414240 13.302245 -1.633532 13.042675 -10.158745 -16.432455 9.457121 -22.123995 -23.353314 143.762137 -37.743873 -118.434389 25.008631 -12.765696 1.272962 -3.624694 -3.171111 -3.179615 -20.615798 7.610087 -15.761498 -5.863801 15.408506 -17.742542 -149.823980 38.305002 -124.476350 -39.613450 15.236472 5.706467 13.605921 8.501303 1.743983 
0.134425 0.426506 -0.386566 172.764241 25.096099 -70.813563 0.927367 -2.549082 -26.261692 -4.512475 -3.425640 12.589866 -11.765314 2.535567 30.930491 -6.916106 13.565078 -13.329687 -0.038588 -1.301673 -28.757727 2.029949 -5.368387 17.243325 13.331528 -8.420036 25.880102 -3.063372 2.914603 -2.535864 3.592708 -2.275688 35.334189 -0.376918 -3.530401 -0.988786 3.105664 -1.203033 1.769517 -3.644622 3.109040 31.148993 4.340349 13.335735 -1.361611 12.975278 -10.342721 -16.385685 9.223316 -22.117013 -23.270328 143.840271 -37.791086 -118.296273 24.698375 -12.806451 1.509198 -3.634119 -3.141608 -3.299251 -20.544671 7.776844 -15.789866 -5.665718 15.496341 -17.829334 -149.676077 38.261724 -124.242373 -38.926000 15.177671 5.612531 13.428876 8.428594 1.878560 
0.134300 0.426486 -0.386302 172.738461 25.150157 -70.850056 0.720488 -2.677720 -26.132962 -4.633430 -3.570316 12.763150 -11.733337 2.311828 30.990091 -7.107464 13.657745 -13.492188 0.031590 -1.328661 -28.807355 2.065238 -5.629449 17.398927 13.230795 -8.438801 25.764986 -3.058406 3.021871 -2.524056 3.598651 -2.300225 35.251230 -0.365851 -3.527571 -0.963321 3.085522 -1.237829 1.767028 -3.582779 3.145666 31.282032 4.260822 13.328566 -1.139553 12.988728 -10.394019 -16.350581 9.092644 -22.385426 -23.306602 143.764479 -37.678785 -118.275445 24.259973 -12.671086 1.163515 -3.483748 -3.072257 -3.098042 -20.538577 7.790322 -15.814306 -5.471206 15.696385 -17.738728 -149.669312 38.251216 -124.253779 -38.529134 14.974892 5.385669 13.296504 8.370595 2.081328 
0.134565 0.426405 -0.386360 172.821718 25.068771 -70.884508 0.606177 -2.737693 -26.213714 -4.637219 -3.297466 13.173750 -11.578491 2.349382 30.963488 -7.272477 13.557648 -13.424760 0.242064 -1.262798 -28.664220 2.040298 -5.836922 17.471477 12.972038 -8.271651 25.776365 -2.572843 2.748655 -2.391369 3.600337 -2.282744 35.388072 -0.320535 -3.552544 -1.010618 3.128160 -1.208730 1.724021 -3.615435 3.170161 31.348206 4.216193 13.481963 -1.359572 12.985478 -10.376469 -16.358876 9.067404 -22.238563 -23.347096 143.678699 -37.548249 -118.123397 23.925830 -12.663784 1.100476 -3.406530 -3.035898 -3.041860 -20.511814 7.833698 -15.849516 -5.375709 15.834664 -17.846022 -149.520899 38.176369 -123.928388 -38.078372 14.876439 5.483899 13.130154 8.350997 2.212685 
0.135174 0.426736 -0.386803 172.920068 24.986161 -70.801304 0.568231 -2.754697 -26.413406 -4.635976 -3.009911 13.437828 -11.508571 2.473077 30.829974 -7.313138 13.396981 -13.272598 0.395657 -1.194157 -28.885990 2.065832 -6.039181 17.575711 12.925525 -8.225789 25.686634 -2.545309 2.707024 -2.236179 3.566921 -2.296916 35.624397 -0.311474 -3.581676 -1.206335 3.158818 -1.190814 1.655163 -3.710374 3.125679 31.017689 4.300232 13.411837 -1.452144 12.999336 -10.544287 -16.437834 9.274243 -22.012923 -23.405225 143.590744 -37.374509 -118.107809 23.978392 -12.747742 1.167816 -3.491820 -3.054526 -3.125121 -20.481732 8.025912 -15.900641 -5.399513 15.796345 -17.913761 -149.483491 38.074768 -123.879868 -38.075349 14.922137 5.419867 13.128962 8.364738 2.218750 
0.135026 0.426818 -0.387034 172.908902 25.023692 -70.813720 0.394584 -2.798312 -26.411220 -4.635826 -2.965116 13.475701 -11.326529 2.356120 30.720786 -7.515221 13.393464 -13.361382 0.318696 -1.250502 -29.030409 1.995500 -6.164078 17.808233 12.858239 -8.239111 25.647411 -2.544464 2.666789 -2.253961 3.659555 -2.347271 35.620165 -0.313127 -3.568496 -1.285954 3.156657 -1.169577 1.659176 -3.863159 2.888704 31.051251 4.326969 13.293136 -1.482040 12.990682 -10.682524 -16.519605 8.999622 -22.392187 -23.378575 143.629786 -37.459958 -117.996007 24.037112 -12.671489 1.347228 -3.534901 -3.082049 -3.059828 -20.548067 8.095174 -15.914963 -5.375553 15.753392 -17.986971 -149.416331 38.125792 -123.703254 -38.015825 14.959343 5.781642 13.079300 8.421374 2.200700 
0.135116 0.426796 -0.386826 172.923936 24.994280 -70.764909 0.619529 -2.711787 -26.506582 -4.700164 -3.007216 13.767785 -11.341941 2.310934 30.849094 -7.398663 13.550365 -13.511685 0.116997 -1.328484 -29.088837 2.117611 -6.230877 18.349571 12.776441 -8.035783 25.538705 -2.337203 2.439826 -2.321337 3.641614 -2.361366 35.461747 -0.245090 -3.579899 -1.265535 3.160068 -1.200994 1.585611 -3.741525 2.925125 31.246937 4.243378 13.317662 -1.447652 12.892563 -10.688170 -16.440815 8.922080 -22.548919 -23.420973 143.633022 -37.468841 -117.849176 23.586488 -12.572885 1.581009 -3.578266 -3.018368 -3.207199 -20.434603 8.082491 -15.848843 -5.152968 15.961809 -17.952802 -149.472684 37.980712 -123.708900 -37.551818 14.763514 5.515746 13.027217 8.362259 2.221867 
0.135224 0.426870 -0.387009 172.978164 25.034257 -70.687116 1.012346 -2.489546 -26.533641 -4.891992 -3.186144 14.456395 -11.326782 2.164461 30.661659 -7.299145 13.643431 -13.746079 -0.349542 -1.693349 -29.356807 2.183959 -6.397454 20.107957 12.639355 -8.028531 25.276740 -2.296594 2.309696 -2.641059 3.642344 -2.397975 35.327610 -0.216200 -3.528352 -1.271828 3.126070 -1.237527 1.540973 -3.708302 2.855733 31.189394 4.171929 13.326832 -1.367773 12.866230 -10.661073 -16.341540 8.758899 -22.710720 -23.505783 143.691689 -37.362904 -117.889596 23.686939 -12.423637 1.150185 -3.569521 -2.952208 -3.056676 -20.422612 8.029305 -15.810806 -5.112541 15.964901 -18.051873 -149.458816 37.933666 -123.645498 -37.294776 14.736081 5.659336 12.842022 8.307358 2.313166 
0.135515 0.426854 -0.387394 173.061518 25.093372 -70.586514 1.565880 -2.529751 -27.000845 -5.400373 -3.539440 17.423144 -11.050064 1.799848 29.839931 -7.431529 13.753559 -14.166008 -0.902466 -2.162650 -29.559574 2.214738 -6.678557 22.534377 12.384758 -7.788367 24.562454 -2.075535 1.805973 -2.965306 3.579318 -2.282192 35.244318 -0.125250 -3.513583 -1.315134 3.096891 -1.248078 1.472451 -3.665020 2.557293 31.384126 4.179286 13.180291 -1.299260 12.804832 -10.799187 -16.216196 8.462288 -23.003414 -23.601440 143.662672 -37.357555 -117.689502 23.384906 -12.164572 0.929268 -3.583306 -2.823303 -2.820027 -20.381234 8.094649 -15.762720 -4.853866 15.953779 -18.179819 -149.376174 37.805720 -123.312314 -36.634606 14.530104 5.883476 12.546249 8.282371 2.478866 
0.135754 0.426884 -0.387714 172.991077 25.128496 -70.526266 2.195980 -2.186607 -27.415963 -6.252810 -3.605587 21.454891 -11.149639 1.133909 29.356953 -7.658970 13.811812 -15.026332 -1.578136 -2.709620 -29.910601 2.351304 -6.954356 27.005940 12.110741 -6.976711 23.616494 -1.557509 1.159906 -3.698474 3.597242 -2.291752 35.061831 0.049372 -3.454729 -1.223287 3.004188 -1.260793 1.236420 -3.515196 2.330672 31.510220 4.013143 13.099904 -1.065405 12.648797 -10.922788 -16.039139 7.887523 -23.313615 -23.602165 143.798732 -37.281188 -117.470333 22.596926 -11.967669 0.650731 -3.595861 -2.593816 -2.582440 -20.201827 8.214717 -15.650548 -4.511852 16.059398 -18.474742 -149.262545 37.538696 -122.900492 -35.474183 14.259216 5.941101 12.133724 8.150910 2.870128 
0.135903 0.426809 -0.388088 173.020981 25.115396 -70.261408 3.055114 -1.673953 -28.925354 -6.859587 -1.663743 28.408852 -10.400707 1.069293 28.779080 -8.151971 13.845631 -16.213269 -2.296767 -3.693748 -30.339305 2.278984 -7.954797 34.046207 11.082405 -5.982575 22.431570 -0.228858 0.092566 -4.680023 3.535086 -2.139272 34.893206 0.364501 -3.396718 -1.324440 2.898337 -1.269161 0.941912 -3.368260 1.936807 31.736080 3.781715 13.176464 -0.617755 12.287686 -10.896987 -15.681930 7.301085 -23.389372 -24.075709 143.684918 -37.013685 -116.877541 21.009666 -11.522537 0.460756 -3.599277 -2.351512 -2.273706 -19.617596 8.277408 -15.372657 -3.690729 16.404995 -18.885127 -149.091412 36.907771 -121.959914 -33.543617 13.835857 6.371351 11.500300 8.012272 3.382963 
